<svg id="Layer_1" data-name="Layer 1" xmlns="http://www.w3.org/2000/svg" viewBox="0 0 48 48"><defs><style>.cls-1,.cls-2,.cls-3{fill:none;}.cls-2,.cls-3{stroke:#000;stroke-width:2px;}.cls-2{stroke-miterlimit:10;}.cls-3{stroke-linecap:round;stroke-linejoin:round;}</style></defs><title>atom</title><path class="cls-1" d="M34,24c0,1.39-.07,2.74-.2,4.05A28.12,28.12,0,0,1,30.38,39.4c-1.74,2.87-4,4.6-6.38,4.6s-4.64-1.73-6.38-4.6A28.12,28.12,0,0,1,14.2,28.05c-.13-1.31-.2-2.66-.2-4.05s.07-2.74.2-4.05A28.12,28.12,0,0,1,17.62,8.6,23.74,23.74,0,0,1,24,11.35,23.74,23.74,0,0,1,30.38,8.6,28.12,28.12,0,0,1,33.8,20C33.93,21.26,34,22.61,34,24Z"/><path class="cls-2" d="M30.38,8.6A23.74,23.74,0,0,0,24,11.35,23.74,23.74,0,0,0,17.62,8.6C19.36,5.73,21.58,4,24,4S28.64,5.73,30.38,8.6Z"/><path class="cls-2" d="M34,24c0,1.39-.07,2.74-.2,4.05A28.12,28.12,0,0,1,30.38,39.4c-1.74,2.87-4,4.6-6.38,4.6s-4.64-1.73-6.38-4.6A28.12,28.12,0,0,1,14.2,28.05c-.13-1.31-.2-2.66-.2-4.05s.07-2.74.2-4.05A28.12,28.12,0,0,1,17.62,8.6,23.74,23.74,0,0,1,24,11.35,23.74,23.74,0,0,1,30.38,8.6,28.12,28.12,0,0,1,33.8,20C33.93,21.26,34,22.61,34,24Z"/><path class="cls-2" d="M39.79,34a6.1,6.1,0,0,1-1.65,4.19c-1.71,1.71-4.51,2.06-7.76,1.26A23.74,23.74,0,0,1,24,36.65a37.23,37.23,0,0,1-7.07-5.58,39.47,39.47,0,0,1-2.73-3A35.27,35.27,0,0,1,11.35,24a26.69,26.69,0,0,1-1.87-3.72,2.5,2.5,0,0,0-.84-4.85,2.63,2.63,0,0,0-.41,0A6.81,6.81,0,0,1,9.86,9.86c1.71-1.71,4.51-2.06,7.76-1.26A23.74,23.74,0,0,1,24,11.35a37.23,37.23,0,0,1,7.07,5.58,39.47,39.47,0,0,1,2.73,3A35.27,35.27,0,0,1,36.65,24,25.68,25.68,0,0,1,39,29a2.5,2.5,0,0,0,.35,5A2.2,2.2,0,0,0,39.79,34Z"/><path class="cls-2" d="M36.65,24a35.27,35.27,0,0,1-2.85,4.05,39.47,39.47,0,0,1-2.73,3A37.23,37.23,0,0,1,24,36.65a23.74,23.74,0,0,1-6.38,2.75c-3.26.81-6,.46-7.76-1.26-2.77-2.77-2-8.34,1.49-14.14A35.27,35.27,0,0,1,14.2,20a39.47,39.47,0,0,1,2.73-3A37.23,37.23,0,0,1,24,11.35,23.74,23.74,0,0,1,30.38,8.6c3.26-.81,6-.46,7.76,1.26C40.91,12.63,40.13,18.2,36.65,24Z"/><circle class="cls-2" cx="24" cy="24" r="5"/><path class="cls-2" d="M11.14,17.93a2.48,2.48,0,0,1-1.66,2.35,2.34,2.34,0,0,1-.84.15,2.5,2.5,0,0,1-.41-5,2.63,2.63,0,0,1,.41,0A2.5,2.5,0,0,1,11.14,17.93Z"/><path class="cls-2" d="M41.86,31.5A2.49,2.49,0,0,1,39.79,34a2.2,2.2,0,0,1-.44,0A2.5,2.5,0,0,1,39,29a1.88,1.88,0,0,1,.35,0A2.5,2.5,0,0,1,41.86,31.5Z"/><rect class="cls-3" x="-496" y="-156" width="700" height="700"/></svg>